<?xml version="1.0" encoding="UTF-8"?>
<svg id="Camada_1" data-name="Camada 1" xmlns="http://www.w3.org/2000/svg" viewBox="0 0 487.74 98.91">
  <defs>
    <style>
      .cls-1 {
        fill: #7cb342;
      }

      .cls-1, .cls-2, .cls-3, .cls-4 {
        stroke-width: 0px;
      }

      .cls-2 {
        fill: #388e3c;
      }

      .cls-3 {
        fill: #c5e1a5;
      }

      .cls-4 {
        fill: #8bc34a;
      }
    </style>
  </defs>
  <g>
    <path class="cls-1" d="M90.05,3.25c-4.43,0-17.52,1.58-27.38,18.97-12.05,21.26-14.46,23.62-19.28,28.34s-28.92,23.62-28.92,23.62C14.46,74.18,2.41,83.63,0,93.08,0,93.08,4.68,97.8,14.39,97.8s28.99,0,55.5-25.98c19.28-21.26,19.28-44.87,19.28-44.87v-14.17c0-7.47,2.41-9.45,2.41-9.45,0,0-.56-.08-1.54-.08Z"/>
    <path class="cls-2" d="M66.88,24.52c-12.38,21.83-14.95,24.36-20.09,29.39-4.95,4.85-28.33,23.19-29.32,23.96-2.55,2.01-8.83,7.77-11.66,13.41,1.8.87,4.64,1.8,8.58,1.8,9.42,0,26.95,0,51.99-24.5,17.64-19.53,17.97-41.43,17.97-41.64v-14.16c0-1.48.08-2.8.23-3.99-5.04,1.47-11.87,5.43-17.71,15.73Z"/>
    <path class="cls-3" d="M65.08,42.3c0,3.26,2.7,5.9,6.03,5.9s6.03-2.64,6.03-5.9-2.7-5.9-6.03-5.9-6.03,2.64-6.03,5.9h0Z"/>
    <path class="cls-3" d="M72.31,24.59c0,2.61,2.15,4.73,4.82,4.73,2.66,0,4.82-2.11,4.82-4.72h0c0-2.62-2.15-4.73-4.82-4.73-2.66,0-4.82,2.11-4.82,4.72h0Z"/>
    <path class="cls-3" d="M53.03,57.65c0,3.91,3.24,7.09,7.23,7.09s7.23-3.17,7.23-7.09-3.24-7.09-7.23-7.09-7.23,3.17-7.23,7.09Z"/>
    <path class="cls-3" d="M40.97,70.64c0,3.26,2.7,5.91,6.02,5.91,3.33,0,6.03-2.64,6.03-5.9h0c0-3.27-2.7-5.91-6.02-5.91-3.33,0-6.03,2.64-6.03,5.9h0Z"/>
    <path class="cls-3" d="M28.92,81.27c0,2.61,2.16,4.72,4.82,4.72s4.82-2.11,4.82-4.72-2.16-4.72-4.82-4.72-4.82,2.11-4.82,4.72Z"/>
    <path class="cls-3" d="M14.46,85.99c0,2.61,2.16,4.72,4.82,4.72s4.82-2.11,4.82-4.72-2.16-4.72-4.82-4.72-4.82,2.11-4.82,4.72Z"/>
    <path class="cls-4" d="M91.59,3.33s-16.87-2.36-28.92,18.89c-12.05,21.26-14.46,23.62-19.28,28.34s-28.92,23.62-28.92,23.62c0,0-12.05,9.45-14.46,18.89,0,0,24.1-7.09,50.62-33.06,19.28-21.26,16.87-30.7,31.33-47.23,4.96-5.67,9.64-9.45,9.64-9.45h0Z"/>
  </g>
  <g>
    <path class="cls-4" d="M131.49,97.8c-.83-2.49-1.38-4.01-1.38-11.88v-15.2c0-8.98-3.04-12.29-9.95-12.29h-5.25v39.37h-15.2V1.11h22.93c15.75,0,22.52,7.32,22.52,22.24v7.6c0,9.95-3.18,16.44-9.95,19.62,7.6,3.18,10.08,10.5,10.08,20.58v14.92c0,4.7.14,8.15,1.66,11.74h-15.47ZM114.91,14.92v29.7h5.94c5.66,0,9.12-2.49,9.12-10.22v-9.53c0-6.91-2.35-9.95-7.74-9.95h-7.32Z"/>
    <path class="cls-4" d="M170.44,41.86h20.86v13.81h-20.86v28.32h26.25v13.81h-41.44V1.11h41.44v13.81h-26.25v26.94Z"/>
    <path class="cls-4" d="M250.15,61.75v12.85c0,15.47-7.73,24.31-22.65,24.31s-22.65-8.84-22.65-24.31V24.31c0-15.47,7.74-24.31,22.65-24.31s22.65,8.84,22.65,24.31v9.39h-14.37v-10.36c0-6.91-3.04-9.53-7.87-9.53s-7.87,2.62-7.87,9.53v52.22c0,6.91,3.04,9.39,7.87,9.39s7.87-2.49,7.87-9.39v-13.81h14.37Z"/>
    <path class="cls-4" d="M259.4,1.11h15.2v96.7h-15.2V1.11Z"/>
    <path class="cls-4" d="M330.68,25v12.57c0,15.47-7.46,23.9-22.65,23.9h-7.18v36.33h-15.2V1.11h22.38c15.19,0,22.65,8.43,22.65,23.9ZM300.84,14.92v32.74h7.18c4.83,0,7.46-2.21,7.46-9.12v-14.5c0-6.91-2.62-9.12-7.46-9.12h-7.18Z"/>
    <path class="cls-4" d="M352.92,41.86h20.86v13.81h-20.86v28.32h26.25v13.81h-41.44V1.11h41.44v13.81h-26.25v26.94Z"/>
    <path class="cls-4" d="M437.73,97.8h-15.33l-2.62-17.54h-18.65l-2.62,17.54h-13.95L400.02,1.11h22.24l15.47,96.7ZM403.06,67.13h14.64l-7.32-48.9-7.32,48.9Z"/>
    <path class="cls-4" d="M465.22,0c14.78,0,22.38,8.84,22.38,24.31v3.04h-14.37v-4.01c0-6.91-2.76-9.53-7.6-9.53s-7.6,2.62-7.6,9.53c0,19.89,29.7,23.62,29.7,51.25,0,15.47-7.74,24.31-22.65,24.31s-22.66-8.84-22.66-24.31v-5.94h14.37v6.91c0,6.91,3.04,9.39,7.87,9.39s7.87-2.49,7.87-9.39c0-19.89-29.7-23.62-29.7-51.25,0-15.47,7.6-24.31,22.38-24.31Z"/>
  </g>
</svg>